<?xml version="1.0" encoding="UTF-8" standalone="no"?>
<!-- Created with Inkscape (http://www.inkscape.org/) -->

<svg
   xmlns:dc="http://purl.org/dc/elements/1.1/"
   xmlns:cc="http://creativecommons.org/ns#"
   xmlns:rdf="http://www.w3.org/1999/02/22-rdf-syntax-ns#"
   xmlns:svg="http://www.w3.org/2000/svg"
   xmlns="http://www.w3.org/2000/svg"
   xmlns:sodipodi="http://sodipodi.sourceforge.net/DTD/sodipodi-0.dtd"
   xmlns:inkscape="http://www.inkscape.org/namespaces/inkscape"
   width="210mm"
   height="297mm"
   viewBox="0 0 210 297"
   version="1.1"
   id="svg8"
   inkscape:version="0.92.3 (2405546, 2018-03-11)"
   sodipodi:docname="week3-incline-plane.svg">
  <defs
     id="defs2">
    <marker
       inkscape:stockid="Arrow1Mend"
       orient="auto"
       refY="0.0"
       refX="0.0"
       id="marker1115"
       style="overflow:visible;"
       inkscape:isstock="true">
      <path
         id="path1113"
         d="M 0.0,0.0 L 5.0,-5.0 L -12.5,0.0 L 5.0,5.0 L 0.0,0.0 z "
         style="fill-rule:evenodd;stroke:#000000;stroke-width:1pt;stroke-opacity:1;fill:#000000;fill-opacity:1"
         transform="scale(0.4) rotate(180) translate(10,0)" />
    </marker>
    <marker
       inkscape:stockid="Arrow1Mend"
       orient="auto"
       refY="0.0"
       refX="0.0"
       id="Arrow1Mend"
       style="overflow:visible;"
       inkscape:isstock="true">
      <path
         id="path840"
         d="M 0.0,0.0 L 5.0,-5.0 L -12.5,0.0 L 5.0,5.0 L 0.0,0.0 z "
         style="fill-rule:evenodd;stroke:#000000;stroke-width:1pt;stroke-opacity:1;fill:#000000;fill-opacity:1"
         transform="scale(0.4) rotate(180) translate(10,0)" />
    </marker>
  </defs>
  <sodipodi:namedview
     id="base"
     pagecolor="#ffffff"
     bordercolor="#666666"
     borderopacity="1.0"
     inkscape:pageopacity="0.0"
     inkscape:pageshadow="2"
     inkscape:zoom="1.4"
     inkscape:cx="362.17305"
     inkscape:cy="739.47737"
     inkscape:document-units="mm"
     inkscape:current-layer="layer1"
     showgrid="false"
     inkscape:snap-global="false"
     inkscape:window-width="1920"
     inkscape:window-height="1025"
     inkscape:window-x="0"
     inkscape:window-y="27"
     inkscape:window-maximized="1" />
  <metadata
     id="metadata5">
    <rdf:RDF>
      <cc:Work
         rdf:about="">
        <dc:format>image/svg+xml</dc:format>
        <dc:type
           rdf:resource="http://purl.org/dc/dcmitype/StillImage" />
        <dc:title></dc:title>
      </cc:Work>
    </rdf:RDF>
  </metadata>
  <g
     inkscape:label="Layer 1"
     inkscape:groupmode="layer"
     id="layer1">
    <path
       style="fill:none;stroke:#000000;stroke-width:0.26458332px;stroke-linecap:butt;stroke-linejoin:miter;stroke-opacity:1"
       d="M 46.680059,75.316963 135.12649,109.33482"
       id="path817"
       inkscape:connector-curvature="0"
       inkscape:export-xdpi="300"
       inkscape:export-ydpi="300" />
    <path
       style="fill:none;stroke:#000000;stroke-width:0.26458332px;stroke-linecap:butt;stroke-linejoin:miter;stroke-opacity:1"
       d="M 135.12649,109.33482 48.191964,108.76785 46.680059,75.316963"
       id="path821"
       inkscape:connector-curvature="0"
       inkscape:export-xdpi="300"
       inkscape:export-ydpi="300" />
    <path
       style="fill:none;stroke:#000000;stroke-width:0.265;stroke-linecap:butt;stroke-linejoin:miter;stroke-opacity:1;stroke-miterlimit:4;stroke-dasharray:none"
       d="m 83.343749,75.694939 -5.291667,11.339287 16.819942,6.425595 5.291666,-11.717262 z"
       id="path823"
       inkscape:connector-curvature="0"
       inkscape:export-xdpi="300"
       inkscape:export-ydpi="300" />
    <path
       style="fill:none;stroke:#000000;stroke-width:0.26458332;stroke-linecap:butt;stroke-linejoin:miter;stroke-opacity:1;stroke-miterlimit:4;stroke-dasharray:0.26458332, 0.79374995000000004;stroke-dashoffset:0;marker-end:url(#marker1115)"
       d="M 80.886905,104.98809 98.084821,61.89881"
       id="path827"
       inkscape:connector-curvature="0"
       inkscape:export-xdpi="300"
       inkscape:export-ydpi="300" />
    <path
       style="fill:none;stroke:#000000;stroke-width:0.26458332;stroke-linecap:butt;stroke-linejoin:miter;stroke-opacity:1;stroke-miterlimit:4;stroke-dasharray:0.26458332, 0.79374995000000004;stroke-dashoffset:0;marker-end:url(#Arrow1Mend)"
       d="M 57.074405,71.915178 121.89732,96.861605"
       id="path829"
       inkscape:connector-curvature="0"
       inkscape:export-xdpi="300"
       inkscape:export-ydpi="300" />
    <path
       style="fill:none;stroke:#000000;stroke-width:0.26458332px;stroke-linecap:butt;stroke-linejoin:miter;stroke-opacity:1"
       d="m 125.11012,96.672618 c -0.063,0.251984 -0.18899,0.496213 -0.18899,0.755952 0,0.08909 0.14915,0.109305 0.18899,0.188989 0.0282,0.05634 0,0.125992 0,0.188987 0.063,0.063 0.13957,0.114861 0.18899,0.188989 0.35802,-0.02151 0.12599,0.44097 0.18898,0.566962 0.0399,0.07969 0.14915,0.109305 0.18899,0.18899 0.0282,0.05635 -0.0282,0.132643 0,0.188989 0.0399,0.07968 0.14915,0.109302 0.18899,0.188986 0.0282,0.05635 -0.0445,0.144444 0,0.18899 0.0445,0.04454 0.14444,-0.04455 0.18899,0 0.0891,0.08909 -0.0563,0.265284 0,0.377975 0.0246,0.0492 0.33672,0.230238 0.18899,0.377973 -0.0446,0.0446 -0.14445,0.0446 -0.18899,0 -0.0446,-0.0445 0,-0.125989 0,-0.188986"
       id="path1147"
       inkscape:connector-curvature="0"
       inkscape:export-xdpi="300"
       inkscape:export-ydpi="300" />
    <path
       style="fill:none;stroke:#000000;stroke-width:0.26458332px;stroke-linecap:butt;stroke-linejoin:miter;stroke-opacity:1"
       d="m 126.43303,97.050594 c -0.56696,0.566965 -1.13392,1.133928 -1.70089,1.700893 -0.063,0.063 -0.11486,0.13957 -0.18899,0.188989 -0.1172,0.07814 -0.27837,0.08938 -0.37797,0.188986 -0.0996,0.0996 -0.11085,0.260771 -0.18899,0.377976 -0.10872,0.163079 -0.41935,0.419349 -0.56697,0.566962 -0.063,0.063 -0.0999,0.18899 -0.18898,0.18899 -0.063,0 0,-0.12599 0,-0.18899 0,-0.063 0,-0.125989 0,-0.188986"
       id="path1149"
       inkscape:connector-curvature="0"
       inkscape:export-xdpi="300"
       inkscape:export-ydpi="300" />
    <path
       style="fill:none;stroke:#000000;stroke-width:0.26458332px;stroke-linecap:butt;stroke-linejoin:miter;stroke-opacity:1"
       d="m 96.950891,56.79613 c 0,0.314981 0,0.629959 0,0.944941 0,0.314981 0,0.629959 0,0.94494 0,0.063 0,0.125992 0,0.188987 0,0.063 -0.02817,0.132643 0,0.188989 0.03984,0.07969 0.149146,0.109305 0.188989,0.188989 0.02817,0.05634 -0.04454,0.144442 0,0.188987 0.04455,0.04454 0.144442,0.04454 0.188987,0 0.08909,-0.08909 -0.05635,-0.265285 0,-0.377976 0.626795,-0.626795 -0.08909,0.178179 0.188989,-0.377976 0.03984,-0.07968 0.149146,-0.109304 0.188987,-0.188989 0.05635,-0.112691 -0.08909,-0.288885 0,-0.377976 0.04454,-0.04454 0.144444,0.04455 0.188989,0 0.04454,-0.04454 -0.04454,-0.144444 0,-0.188986 0.04454,-0.04455 0.132644,0.02817 0.188989,0 0.0492,-0.02461 0.230238,-0.336728 0.377976,-0.188989 0.04454,0.04454 -0.02817,0.132643 0,0.188989 0.626795,0.626792 -0.08909,-0.178181 0.188987,0.377976 0.03984,0.07968 0.149145,0.109302 0.188989,0.188986 0.05635,0.112691 -0.05635,0.265287 0,0.377976 0.03984,0.07968 0.149146,0.109305 0.188987,0.188989 0.05939,0.118782 -0.05939,0.63717 0,0.755952 0.03984,0.07968 0.149148,0.109304 0.188989,0.188989 0.02876,0.05752 0,0.481851 0,0.566965 0,0.063 0.04454,0.144441 0,0.188987 -0.04454,0.04454 -0.144444,-0.04455 -0.188989,0 -0.04454,0.04454 0.04454,0.144444 0,0.188989 -0.04454,0.04454 -0.132641,-0.02817 -0.188987,0 -0.07968,0.03984 -0.109305,0.149145 -0.188989,0.188986 -0.05752,0.02876 -0.481852,0 -0.566963,0 -0.063,0 -0.144444,0.04455 -0.188989,0 -0.04454,-0.04454 0,-0.125992 0,-0.188986 0,-0.063 0,-0.125992 0,-0.188989 0,-0.04491 -0.02119,-0.713595 0,-0.755952 0.03984,-0.07968 0.149146,-0.109305 0.188989,-0.188989 0.02817,-0.05635 -0.04454,-0.144442 0,-0.188987 0.477364,-0.477366 0.217861,-0.07262 0.566963,-0.188989 0.133635,-0.04454 0.26077,-0.11085 0.377976,-0.188987 0.698701,-0.465801 -0.494949,0.07649 0.566965,-0.188989 0.342058,0.113909 0.351485,-0.306149 0.566965,-0.377976 0.11953,-0.03984 0.25198,0 0.37798,0 0.12599,-0.063 0.25198,-0.125992 0.37797,-0.188989"
       id="path1151"
       inkscape:connector-curvature="0"
       inkscape:export-xdpi="300"
       inkscape:export-ydpi="300" />
    <path
       style="fill:none;stroke:#000000;stroke-width:0.26458332px;stroke-linecap:butt;stroke-linejoin:miter;stroke-opacity:1"
       d="m 121.14137,103.85416 c -0.25199,0.18899 -0.50397,0.37798 -0.75595,0.56697 0,0.063 0.0445,0.14444 0,0.18899 -0.0446,0.0445 -0.14445,-0.0446 -0.18899,0 -0.0446,0.0445 0.0282,0.13264 0,0.18898 -0.0399,0.0797 -0.14915,0.10931 -0.18899,0.18899 -0.0564,0.1127 0.0891,0.28889 0,0.37798 -0.0446,0.0446 -0.14444,-0.0445 -0.18899,0 -0.0891,0.0891 0.0563,0.26528 0,0.37798 -0.0398,0.0797 -0.14915,0.1093 -0.18899,0.18898 -0.0756,0.1512 0.0756,0.41578 0,0.56697 -0.0398,0.0797 -0.14914,0.1093 -0.18899,0.18899 -0.0244,0.0489 0,0.99997 0,1.13392 0,0.13396 -0.0244,1.08507 0,1.13393 0.0399,0.0797 0.126,0.126 0.18899,0.18899"
       id="path1153"
       inkscape:connector-curvature="0"
       inkscape:export-xdpi="300"
       inkscape:export-ydpi="300" />
    <path
       style="fill:none;stroke:#000000;stroke-width:0.26458332px;stroke-linecap:butt;stroke-linejoin:miter;stroke-opacity:1"
       d="m 113.01488,102.53125 c -0.25198,0.063 -0.50397,0.12599 -0.75595,0.18899 0,0.063 0.0445,0.14444 0,0.18899 -0.0446,0.0445 -0.14445,-0.0445 -0.18899,0 -0.0446,0.0445 0.0445,0.14444 0,0.18898 -0.0446,0.0446 -0.14444,-0.0445 -0.18899,0 -0.0446,0.0446 0.0282,0.13265 0,0.18899 -0.39326,0.78652 0.013,-0.20203 -0.37798,0.18899 -0.0445,0.0445 0.0282,0.13264 0,0.18899 -0.0398,0.0797 -0.14914,0.1093 -0.18898,0.18898 -0.0564,0.1127 0.0891,0.28889 0,0.37798 -0.0446,0.0446 -0.14445,-0.0445 -0.18899,0 -0.008,0.008 0,0.68655 0,0.75595 0,0.0694 -0.008,0.74835 0,0.75596 0.0445,0.0445 0.14444,-0.0446 0.18899,0 0.0891,0.0891 -0.0891,0.28888 0,0.37797 0.0445,0.0445 0.14444,-0.0445 0.18898,0 0.0446,0.0445 -0.0445,0.14445 0,0.18899 0.0446,0.0446 0.14445,-0.0445 0.18899,0 0.0446,0.0446 0,0.12599 0,0.18899 0.063,0 0.13264,-0.0282 0.18899,0 0.78652,0.39326 -0.20203,-0.0131 0.18899,0.37798 0.0445,0.0445 0.13264,-0.0282 0.18899,0 0.0797,0.0398 0.1093,0.14914 0.18899,0.18898 0.0563,0.0282 0.13264,-0.0282 0.18898,0 0.0797,0.0399 0.10931,0.14915 0.18899,0.18899 0.0563,0.0282 0.12599,0 0.18899,0 0.063,0 0.12599,0 0.18899,0 0.44321,0 -0.0891,-0.0445 0.37797,0.18899 0.0683,0.0342 0.8135,0 0.94494,0 0.063,0 0.126,0 0.18899,0 0.063,0 0.14445,0.0445 0.18899,0 0.0445,-0.0446 -0.0445,-0.14444 0,-0.18899 0.39102,-0.39102 -0.0153,0.59754 0.37798,-0.18899 0.0282,-0.0563 -0.0446,-0.14444 0,-0.18898 0.0445,-0.0445 0.14444,0.0445 0.18898,0 0.0517,-0.0517 -0.0513,-0.65344 0,-0.75596 0.0399,-0.0797 0.14915,-0.1093 0.18899,-0.18899 0.0342,-0.0683 0,-0.81349 0,-0.94494 0,-0.063 0.0446,-0.14444 0,-0.18899 -0.0445,-0.0445 -0.14444,0.0446 -0.18899,0 -0.0445,-0.0445 0.0282,-0.13264 0,-0.18898 -0.0398,-0.0797 -0.14914,-0.10931 -0.18898,-0.18899 -0.0282,-0.0564 0.0445,-0.14444 0,-0.18899 -0.0446,-0.0445 -0.14445,0.0446 -0.18899,0 -0.0891,-0.0891 0.0891,-0.28889 0,-0.37798 -0.0891,-0.0891 -0.28889,0.0891 -0.37798,0 -0.0445,-0.0445 0.0445,-0.14444 0,-0.18898 -0.0945,-0.0945 -0.47247,0.0945 -0.56696,0 -0.0446,-0.0446 0.0445,-0.14445 0,-0.18899 -0.0446,-0.0446 -0.14445,0.0445 -0.18899,0 -0.0445,-0.0446 0.0445,-0.14444 0,-0.18899 -0.0445,-0.0445 -0.14444,0.0446 -0.18899,0 -0.0445,-0.0445 0,-0.12599 0,-0.18899 -0.25198,-0.18898 -0.50397,-0.37797 -0.75595,-0.56696 z"
       id="path1159"
       inkscape:connector-curvature="0"
       inkscape:export-xdpi="300"
       inkscape:export-ydpi="300" />
    <path
       style="fill:none;stroke:#000000;stroke-width:0.26458332px;stroke-linecap:butt;stroke-linejoin:miter;stroke-opacity:1"
       d="m 109.99107,105.93303 c 0.31293,-0.46935 0.7704,-0.0678 1.13393,-0.18898 0.0845,-0.0282 0.10447,-0.16082 0.18899,-0.18899 0.11952,-0.0398 0.25574,0.0306 0.37797,0 0.13666,-0.0342 0.24434,-0.14444 0.37798,-0.18899 0.0598,-0.0199 0.12599,0 0.18899,0 0.12599,0 0.25845,0.0398 0.37797,0 0.0845,-0.0282 0.10931,-0.14915 0.18899,-0.18899 0.0689,-0.0344 0.83605,0 0.94494,0 0.18899,0 0.38768,0.0598 0.56697,0 0.0845,-0.0282 0.1093,-0.14914 0.18898,-0.18899 0.0841,-0.042 0.66952,0.0288 0.75596,0 0.0845,-0.0282 0.1093,-0.14914 0.18898,-0.18899 0.11879,-0.0594 0.63717,0.0594 0.75596,0 0.0797,-0.0398 0.10447,-0.16081 0.18899,-0.18898 0.13676,-0.0456 0.69365,0.0623 0.75595,0 0.25198,-0.25199 -0.31498,-0.18899 0.18899,-0.18899 0.31498,0 0.62996,0 0.94494,0 0.063,0 0.14444,0.0445 0.18898,0 0.0446,-0.0446 0,-0.12599 0,-0.18899"
       id="path1161"
       inkscape:connector-curvature="0"
       inkscape:export-xdpi="300"
       inkscape:export-ydpi="300" />
  </g>
</svg>
